<?xml version="1.0" encoding="UTF-8"?>
<svg xmlns="http://www.w3.org/2000/svg" xmlns:xlink="http://www.w3.org/1999/xlink" width="30px" height="30px" viewBox="0 0 30 30" version="1.1">
<g id="surface1">
<path style=" stroke:none;fill-rule:nonzero;fill:#baa2b5;fill-opacity:1;" d="M 22.5 11.25 L 20 11.25 C 19.25 11.25 18.75 11.75 18.75 12.5 C 18.75 13.25 19.25 13.75 20 13.75 L 22.5 13.75 C 23.25 13.75 23.75 14.25 23.75 15 L 23.75 23.75 C 23.75 24.5 23.25 25 22.5 25 L 7.5 25 C 6.75 25 6.25 24.5 6.25 23.75 L 6.25 15 C 6.25 14.25 6.75 13.75 7.5 13.75 L 10 13.75 C 10.75 13.75 11.25 13.25 11.25 12.5 C 11.25 11.75 10.75 11.25 10 11.25 L 7.5 11.25 C 5.375 11.25 3.75 12.875 3.75 15 L 3.75 23.75 C 3.75 25.875 5.375 27.5 7.5 27.5 L 22.5 27.5 C 24.625 27.5 26.25 25.875 26.25 23.75 L 26.25 15 C 26.25 12.875 24.625 11.25 22.5 11.25 Z M 12.125 8.375 L 13.75 6.75 L 13.75 21.25 C 13.75 22 14.25 22.5 15 22.5 C 15.75 22.5 16.25 22 16.25 21.25 L 16.25 6.75 L 17.875 8.375 C 18.125 8.625 18.375 8.75 18.75 8.75 C 19.125 8.75 19.375 8.625 19.625 8.375 C 20.125 7.875 20.125 7.125 19.625 6.625 L 15.875 2.875 C 15.375 2.375 14.625 2.375 14.125 2.875 L 10.375 6.625 C 9.875 7.125 9.875 7.875 10.375 8.375 C 10.875 8.875 11.625 8.875 12.125 8.375 Z M 12.125 8.375 "/>
</g>
</svg>