<svg xmlns="http://www.w3.org/2000/svg" enable-background="new 0 0 54 54" viewBox="0 0 54 54" width="256" height="256"><path d="M22.9238281,41.6171875C22.7695312,41.2431641,22.4042969,41,22,41h-4V27c0-0.5527344-0.4472656-1-1-1H7
		c-0.5527344,0-1,0.4472656-1,1v14H2c-0.4042969,0-0.7695312,0.2431641-0.9238281,0.6171875
		c-0.1552734,0.3740234-0.0693359,0.8037109,0.2167969,1.0898438l10,10C11.4882812,52.9023438,11.7441406,53,12,53
		s0.5117188-0.0976562,0.7070312-0.2929688l10-10C22.9931641,42.4208984,23.0791016,41.9912109,22.9238281,41.6171875z" fill="#000000" class="color000 svgShape"></path><rect width="5" height="14" x="17" y="1" fill="#000000" class="color000 svgShape"></rect><rect width="13" height="14" x="24" y="1" fill="#000000" class="color000 svgShape"></rect><path d="M52.6181641,8.5527344C43.0068359,1,43.0068359,1,42.6601562,1H39v15c0,0.5527344-0.4472656,1-1,1H16
		c-0.5527344,0-1-0.4472656-1-1V1H6C5.4472656,1,5,1.4472656,5,2v22.7802734C5.5319824,24.3005371,6.2288818,24,7,24h6v-2
		c0-0.5527344,0.4472656-1,1-1h30c0.5527344,0,1,0.4472656,1,1v22c0,0.5527344-0.4472656,1-1,1H23.2421875l-4,4H52
		c0.5527344,0,1-0.4472656,1-1V9.3388672C53,9.0322266,52.859375,8.7421875,52.6181641,8.5527344z" fill="#000000" class="color000 svgShape"></path><path d="M43,43V23H15v1h2c1.6542969,0,3,1.3457031,3,3v12h2c1.2197266,0,2.3076172,0.7275391,2.7724609,1.8544922
		C25.0629883,41.5536499,25.072876,42.3161011,24.8302612,43H43z" fill="#000000" class="color000 svgShape"></path></svg>