<?xml version="1.0" encoding="UTF-8"?>
<svg xmlns="http://www.w3.org/2000/svg" xmlns:xlink="http://www.w3.org/1999/xlink" width="30px" height="30px" viewBox="0 0 30 30" version="1.1">
<g id="surface1">
<path style=" stroke:none;fill-rule:nonzero;fill:#d26efb;fill-opacity:1;" d="M 12.734375 23.121094 C 12.648438 22.914062 12.445312 22.777344 12.222656 22.777344 L 10 22.777344 L 10 15 C 10 14.691406 9.75 14.445312 9.445312 14.445312 L 3.890625 14.445312 C 3.582031 14.445312 3.332031 14.691406 3.332031 15 L 3.332031 22.777344 L 1.109375 22.777344 C 0.886719 22.777344 0.683594 22.914062 0.597656 23.121094 C 0.511719 23.328125 0.558594 23.566406 0.71875 23.726562 L 6.273438 29.28125 C 6.382812 29.390625 6.523438 29.445312 6.667969 29.445312 C 6.808594 29.445312 6.949219 29.390625 7.058594 29.28125 L 12.613281 23.726562 C 12.773438 23.566406 12.820312 23.328125 12.734375 23.121094 Z M 12.734375 23.121094 "/>
<path style=" stroke:none;fill-rule:nonzero;fill:#d26efb;fill-opacity:1;" d="M 9.445312 0.554688 L 12.222656 0.554688 L 12.222656 8.332031 L 9.445312 8.332031 Z M 9.445312 0.554688 "/>
<path style=" stroke:none;fill-rule:nonzero;fill:#d26efb;fill-opacity:1;" d="M 13.332031 0.554688 L 20.554688 0.554688 L 20.554688 8.332031 L 13.332031 8.332031 Z M 13.332031 0.554688 "/>
<path style=" stroke:none;fill-rule:nonzero;fill:#d26efb;fill-opacity:1;" d="M 29.230469 4.75 C 23.894531 0.554688 23.894531 0.554688 23.699219 0.554688 L 21.667969 0.554688 L 21.667969 8.890625 C 21.667969 9.195312 21.417969 9.445312 21.109375 9.445312 L 8.890625 9.445312 C 8.582031 9.445312 8.332031 9.195312 8.332031 8.890625 L 8.332031 0.554688 L 3.332031 0.554688 C 3.027344 0.554688 2.777344 0.804688 2.777344 1.109375 L 2.777344 13.765625 C 3.074219 13.5 3.460938 13.332031 3.890625 13.332031 L 7.222656 13.332031 L 7.222656 12.222656 C 7.222656 11.914062 7.46875 11.667969 7.777344 11.667969 L 24.445312 11.667969 C 24.75 11.667969 25 11.914062 25 12.222656 L 25 24.445312 C 25 24.75 24.75 25 24.445312 25 L 12.914062 25 L 10.691406 27.222656 L 28.890625 27.222656 C 29.195312 27.222656 29.445312 26.972656 29.445312 26.667969 L 29.445312 5.1875 C 29.445312 5.019531 29.367188 4.855469 29.230469 4.75 Z M 29.230469 4.75 "/>
<path style=" stroke:none;fill-rule:nonzero;fill:#d26efb;fill-opacity:1;" d="M 23.890625 23.890625 L 23.890625 12.777344 L 8.332031 12.777344 L 8.332031 13.332031 L 9.445312 13.332031 C 10.363281 13.332031 11.109375 14.082031 11.109375 15 L 11.109375 21.667969 L 12.222656 21.667969 C 12.898438 21.667969 13.503906 22.070312 13.761719 22.695312 C 13.925781 23.085938 13.929688 23.507812 13.792969 23.890625 Z M 23.890625 23.890625 "/>
</g>
</svg>
