<svg style="display:none" xmlns="http://www.w3.org/2000/svg">
  <symbol id="cup" width="20" height="20" viewBox="0 0 20 20" fill="none" xmlns="http://www.w3.org/2000/svg">
    <path d="M14.167 9.76667V11.6667C14.167 14.8883 11.5553 17.5 8.33366 17.5C5.112 17.5 2.50033 14.8883 2.50033 11.6667V9.76667C2.50033 9.4353 2.76896 9.16667 3.10033 9.16667H13.567C13.8984 9.16667 14.167 9.4353 14.167 9.76667Z" stroke="#403F3D" stroke-width="1.5" stroke-linecap="round" stroke-linejoin="round"/>
    <path d="M10.0003 7.50008C10.0003 6.66675 10.5956 5.83341 11.786 5.83341V5.83341C13.101 5.83341 14.167 4.76743 14.167 3.45246V2.91675" stroke="#403F3D" stroke-width="1.5" stroke-linecap="round" stroke-linejoin="round"/>
    <path d="M6.66634 7.5V7.08333C6.66634 5.70262 7.78563 4.58333 9.16634 4.58333V4.58333C10.0868 4.58333 10.833 3.83714 10.833 2.91667V2.5" stroke="#403F3D" stroke-width="1.5" stroke-linecap="round" stroke-linejoin="round"/>
    <path d="M13.333 9.16675H15.4163C16.5669 9.16675 17.4997 10.0995 17.4997 11.2501C17.4997 12.4007 16.5669 13.3334 15.4163 13.3334H14.1663" stroke="#403F3D" stroke-width="1.5" stroke-linecap="round" stroke-linejoin="round"/>
  </symbol>
  <symbol id="arrow" width="24" height="24" viewBox="0 0 24 24" fill="none" xmlns="http://www.w3.org/2000/svg">
    <g id="arrow-left">
    <path id="Vector" d="M18.5 12H6M6 12L12 6M6 12L12 18" stroke="#403F3D" stroke-linecap="round" stroke-linejoin="round"/>
    </g>
  </symbol>
  <symbol id="apple" width="36" height="36" viewBox="0 0 36 36" fill="none" xmlns="http://www.w3.org/2000/svg">
    <path d="M26.7063 18.6307C26.6694 14.6324 30.0641 12.6872 30.2193 12.5966C28.2967 9.86366 25.3169 9.49026 24.2697 9.46048C21.767 9.20369 19.3393 10.9206 18.0644 10.9206C16.764 10.9206 14.8008 9.48529 12.6848 9.52747C9.96196 9.56841 7.41468 11.1055 6.01762 13.4923C3.13444 18.359 5.28474 25.5108 8.04705 29.4446C9.42884 31.3712 11.0435 33.5223 13.1569 33.4466C15.2245 33.3635 15.9968 32.1614 18.4919 32.1614C20.9641 32.1614 21.6893 33.4466 23.8447 33.3983C26.0637 33.3635 27.4608 31.463 28.7942 29.519C30.3911 27.3108 31.0323 25.1362 31.0578 25.0245C31.0056 25.0071 26.7483 23.4229 26.7063 18.6307Z" fill="#403F3D"/>
    <path d="M22.6347 6.87268C23.7468 5.51675 24.5076 3.67205 24.2964 1.80005C22.6869 1.86952 20.674 2.88554 19.5149 4.21169C18.4893 5.38029 17.5732 7.29571 17.8099 9.097C19.6179 9.2285 21.4743 8.20752 22.6347 6.87268Z" fill="#403F3D"/>
  </symbol>
  <svg id="google" width="36" height="36" viewBox="0 0 36 36" fill="none" xmlns="http://www.w3.org/2000/svg">
    <path d="M3.7558 3.20309C3.39335 3.57302 3.18359 4.14896 3.18359 4.89483V31.4995C3.18359 32.2454 3.39335 32.8213 3.7558 33.1913L3.84525 33.2725L19.1359 18.3701V18.0182L3.84525 3.11587L3.7558 3.20309Z" fill="#403F3D"/>
    <path d="M26.0776 23.34L20.9863 18.3701V18.0182L26.0837 13.0482L26.1979 13.1129L32.2345 16.4618C33.9573 17.4122 33.9573 18.9761 32.2345 19.9325L26.1979 23.2754L26.0776 23.34Z" fill="#403F3D"/>
    <path d="M25.2733 24.2008L20.0617 19.1196L4.68164 34.1167C5.25384 34.7031 6.18695 34.7738 7.24807 34.1873L25.2733 24.2008Z" fill="#403F3D"/>
    <path d="M25.2733 12.1876L7.24807 2.20103C6.18695 1.62058 5.25384 1.69125 4.68164 2.27772L20.0617 17.2688L25.2733 12.1876Z" fill="#403F3D"/>
  </svg>
</svg>